Coordinates
version=1
nRows=7
nColumns=40
inDegrees=yes

Units are S.I. units (second, meters, Newtons, ...)
Angles are in degrees.

endheader
time	pelvis_tilt	pelvis_list	pelvis_rotation	pelvis_tx	pelvis_ty	pelvis_tz	hip_flexion_r	hip_adduction_r	hip_rotation_r	knee_angle_r	knee_angle_r_beta	ankle_angle_r	subtalar_angle_r	mtp_angle_r	hip_flexion_l	hip_adduction_l	hip_rotation_l	knee_angle_l	knee_angle_l_beta	ankle_angle_l	subtalar_angle_l	mtp_angle_l	lumbar_extension	lumbar_bending	lumbar_rotation	arm_flex_r	arm_add_r	arm_rot_r	elbow_flex_r	pro_sup_r	wrist_flex_r	wrist_dev_r	arm_flex_l	arm_add_l	arm_rot_l	elbow_flex_l	pro_sup_l	wrist_flex_l	wrist_dev_l
     33.03142857	     -3.88459940	     -6.29309074	      3.58763754	      1.05360693	      0.93001266	      0.52298274	      8.14499003	      4.91361307	    -14.05113191	     14.91971688	     14.91971688	     12.20045551	     -0.76319431	     -2.32787588	     36.39383090	    -14.48428323	      1.05479481	     51.90199250	     51.90199250	      9.10448514	    -19.03320903	     18.22430311	    -10.17003971	      5.79734468	      2.02329819	     23.49286918	    -16.50383612	     -3.76526083	     61.48023333	     45.32360776	      0.00000000	      0.00000000	      8.29824539	     -7.08733524	     -0.33794181	     26.19572640	     46.48567442	      0.00000000	      0.00000000
     33.04285714	     -4.08951694	     -6.16819411	      3.77994055	      1.05171659	      0.93017035	      0.52237178	      7.25616791	      4.86319878	    -14.40507437	     13.80663886	     13.80663886	     12.11905750	     -0.02726476	     -2.93211791	     36.75699839	    -13.64398829	      1.24765075	     47.73189743	     47.73189743	      8.08519187	    -18.67821104	     15.43144319	    -10.16788500	      5.65626224	      2.33898520	     25.44875070	    -17.11982255	     -3.63776444	     64.71187139	     45.22733109	      0.00000000	      0.00000000	      7.19689271	     -6.99052990	      0.36018405	     24.48625327	     46.30807189	      0.00000000	      0.00000000
     33.05428571	     -4.38333559	     -6.04142599	      3.93835370	      1.04983074	      0.93007285	      0.52169789	      6.49353477	      4.83406596	    -14.51223266	     12.75861522	     12.75861522	     12.23036138	      0.41405107	     -2.90841990	     37.12981718	    -12.72687834	      1.68871359	     43.55502843	     43.55502843	      8.00980874	    -17.76487264	     15.27307417	    -10.03651579	      5.47327417	      2.32443898	     27.92443475	    -17.15865476	     -3.90239434	     66.50090042	     45.18979507	      0.00000000	      0.00000000	      5.65545521	     -7.01393120	      0.51587529	     23.68792019	     46.24512735	      0.00000000	      0.00000000
     33.06571429	     -4.56863870	     -6.07726779	      4.14050730	      1.04823891	      0.92980081	      0.52081786	      5.51151332	      4.96700976	    -14.92389867	     11.53681558	     11.53681558	     12.28018616	      1.36896992	     -3.03668597	     37.29513293	    -12.05435848	      2.15641247	     39.33944673	     39.33944673	      7.86558378	    -16.10775854	     14.19013817	     -9.99444814	      5.55216958	      2.13080997	     30.40821474	    -17.12322054	     -4.00057384	     68.92137652	     45.12682719	      0.00000000	      0.00000000	      4.02322929	     -7.02616909	      0.78708898	     22.97065437	     46.15240243	      0.00000000	      0.00000000
     33.07714286	     -4.79128032	     -6.09900405	      4.25514777	      1.04681877	      0.92928518	      0.51996466	      4.64025592	      5.06863483	    -15.26955746	     10.47658014	     10.47658014	     12.34938750	      2.27472499	     -3.20486094	     37.33335442	    -11.53835793	      2.35114321	     35.08355348	     35.08355348	      7.81244941	    -13.75989814	     13.23157819	     -9.90210570	      5.60351578	      2.19342412	     32.66666193	    -17.27895981	     -4.06563337	     71.13303492	     45.06943359	      0.00000000	      0.00000000	      2.41892306	     -7.05085468	      1.03410359	     22.50479734	     46.06206104	      0.00000000	      0.00000000
     33.08857143	     -4.99996008	     -6.16819533	      4.37374969	      1.04563463	      0.92849445	      0.51911160	      3.77282658	      5.23055923	    -15.58829782	      9.48157289	      9.48157289	     12.50098575	      3.12694073	     -3.37724292	     37.29652686	    -11.13251523	      2.43818158	     30.97211093	     30.97211093	      7.72610541	    -11.27194909	     12.72322608	     -9.72879720	      5.63261270	      2.32984670	     34.89311784	    -17.43580071	     -4.13900425	     73.20370401	     45.01686920	      0.00000000	      0.00000000	      0.81234195	     -7.06051886	      1.24036332	     22.16145681	     45.97911260	      0.00000000	      0.00000000
     33.10000000	     -5.09777642	     -6.37622216	      4.49730790	      1.04476546	      0.92746558	      0.51806669	      2.67090550	      5.54106346	    -16.22615977	      8.27013151	      8.27013151	     12.43132827	      4.52194615	     -4.08510718	     36.99805601	    -10.90579602	      2.44541870	     26.83562576	     26.83562576	      6.33345707	     -9.21996345	      9.05339104	     -9.78979494	      5.94563323	      2.55541435	     36.73929762	    -17.88796932	     -4.06900639	     76.79668442	     44.95488223	      0.00000000	      0.00000000	     -1.26287018	     -7.41640517	      3.69581028	     23.31390296	     45.39213774	      0.00000000	      0.00000000
